<?xml version="1.0" standalone="no"?><!DOCTYPE svg PUBLIC "-//W3C//DTD SVG 1.1//EN" "http://www.w3.org/Graphics/SVG/1.1/DTD/svg11.dtd"><svg t="1704175888911" class="icon" viewBox="0 0 1024 1024" version="1.1" xmlns="http://www.w3.org/2000/svg" p-id="3790" xmlns:xlink="http://www.w3.org/1999/xlink" width="64" height="64"><path d="M512 512m-512 0a512 512 0 1 0 1024 0 512 512 0 1 0-1024 0Z" fill="#C71D23" p-id="3791"></path><path d="M771.168 455.136h-290.784a25.28 25.28 0 0 0-25.28 25.28v63.2c0 13.952 11.296 25.28 25.28 25.28h176.992a25.28 25.28 0 0 1 25.28 25.28v12.64a75.84 75.84 0 0 1-75.84 75.84h-240.224a25.28 25.28 0 0 1-25.28-25.28v-240.192a75.84 75.84 0 0 1 75.84-75.84h353.92c13.984 0 25.28-11.328 25.312-25.28l0.032-63.2a25.28 25.28 0 0 0-25.28-25.28H417.216a189.632 189.632 0 0 0-189.632 189.6V771.2c0 13.952 11.328 25.28 25.28 25.28h372.96a170.656 170.656 0 0 0 170.656-170.656v-145.376a25.28 25.28 0 0 0-25.28-25.28z" fill="#FFFFFF" p-id="3792"></path></svg>