<svg xmlns="http://www.w3.org/2000/svg" width="48" height="48" fill="none" viewBox="0 0 48 48" id="qq"><rect width="48" height="48" fill="#259BE0" rx="24"></rect><path fill="#fff" d="M34.8237 20C34.8237 26.0061 35.0737 36.125 23.9487 36.125C13.0737 36.125 13.0737 26.0061 13.0737 20C13.0737 13.9939 17.1987 9.125 23.9487 9.125C30.6987 9.125 34.8237 13.9939 34.8237 20Z"></path><path fill="#fff" d="M10.3238 30.75C8.99428 27.5436 12.8862 21.875 14.3237 20.875L18.0113 25.3125C15.8029 27.9792 11.0179 32.4241 10.3238 30.75zM37.6762 30.75C39.0057 27.5436 35.1138 21.875 33.6763 20.875L29.9887 25.3125C32.1971 27.9792 36.9821 32.4241 37.6762 30.75zM24.7659 34.5626C24.7659 35.9778 24.7659 37.1251 29.9846 37.1251 33.6409 37.1251 35.2034 35.9778 35.2034 34.5626 35.2034 33.1473 31.7659 31.25 29.9846 32.0001 27.1024 32.0001 24.7659 33.1473 24.7659 34.5626zM23.1321 34.5626C23.1321 35.9778 23.1321 37.1251 17.9133 37.1251 14.2571 37.1251 12.6946 35.9778 12.6946 34.5626 12.6946 33.1473 16.1321 31.25 17.9133 32.0001 20.7956 32.0001 23.1321 33.1473 23.1321 34.5626z"></path></svg>