<svg xmlns="http://www.w3.org/2000/svg" data-name="18" viewBox="0 0 64 64" id="weibo"><defs><linearGradient id="a" x1="32" x2="32" y1="58.37" y2="5.52" gradientUnits="userSpaceOnUse"><stop offset="0" stop-color="#ffda4f"></stop><stop offset="1" stop-color="#feedb6"></stop></linearGradient></defs><path fill="url(#a)" fill-rule="evenodd" d="m60,12c0-4.42-3.58-8-8-8H12C7.58,4,4,7.58,4,12v40c0,4.42,3.58,8,8,8h40c4.42,0,8-3.58,8-8V12h0Z"></path><path fill="#ef1122" fill-rule="evenodd" d="m12.35,42.26c-3.87-6.14,1.52-12.59,4.75-16.13,3.95-4.31,10.47-7.5,13.57-5.89,1.66.87,1.34,3.53.95,5.21-.04.24.06.49.26.64.2.15.46.18.68.08,2.08-.94,6.05-2.36,8.8-.75,1.6.94.94,3.75.49,5.13-.05.19-.03.39.08.56.1.17.27.28.46.32,1.64.37,5.23,1.56,5.3,5.43.08,4.08-5.61,12.11-18.77,12.13-7.88.01-14.27-3.09-16.56-6.73h0Z"></path><path fill="#fff" fill-rule="evenodd" d="m26.94,30.01c6.92-.76,12.94,2.32,13.45,6.87.5,4.55-4.71,8.87-11.63,9.63-6.92.76-12.94-2.32-13.45-6.87-.5-4.56,4.71-8.87,11.63-9.63h0Z"></path><path fill="#160000" fill-rule="evenodd" d="m25.64,33.51c3.63-.89,7.19.88,7.95,3.96.76,3.08-1.57,6.31-5.19,7.2-3.63.9-7.19-.88-7.95-3.96-.76-3.08,1.57-6.31,5.19-7.2h0Zm-1.82,5.04c1.1-.68,2.48-.44,3.08.53.59.97.18,2.3-.92,2.98-1.1.68-2.48.44-3.08-.53-.59-.97-.18-2.3.92-2.98h0Zm5.15-1.18c.27.31.18.81-.19,1.14-.37.32-.89.34-1.15.03-.26-.3-.18-.81.19-1.14.37-.32.89-.34,1.15-.03h0Z"></path><path fill="#f29322" fill-rule="evenodd" d="m40.21,18.22c6.69-1.46,11.16,5.27,9.44,10.38-.26.78.16,1.64.94,1.9.79.26,1.64-.16,1.9-.94,2.36-7.01-3.74-16.26-12.92-14.26-.81.18-1.32.98-1.15,1.79.18.81.98,1.32,1.79,1.15h0Zm.87,5.36c1.05-.21,2.01.05,2.62.69.63.65.85,1.66.57,2.84-.19.81.31,1.62,1.11,1.81.8.19,1.61-.31,1.81-1.11.56-2.34-.08-4.31-1.33-5.61-1.26-1.31-3.19-1.98-5.36-1.56-.81.16-1.35.95-1.19,1.76.16.81.95,1.34,1.76,1.19h0Z"></path></svg>